:version 1.10
:name ASF
:units
  mass 1
  length 1
  angle deg
:documentation
  ASF file generated by Kaydara
:root
  axis xyz
  order  tx ty tz rx ry rz
  position 0 0 0
  orientation 0 0 0
:bonedata
  begin
    id 1
    name RightUpLegDummy
    direction -1 2.30186e-007 8.31532e-007
    length 4.04083
    axis 0 0 0 xyz
  end
  begin
    id 2
    name RightUpLeg
    direction -0.000919234 -0.999985 0.00544864
    length 17.4221
    axis -3.80308 -0.00076134 -0.0523649 xyz
    dof rx ry rz
  end
  begin
    id 3
    name RightLeg
    direction -0.000919271 -0.999984 -0.00555045
    length 17.1239
    axis 4.00314 0.0181274 -0.183583 xyz
    dof rx ry rz
  end
  begin
    id 4
    name RightFoot
    direction -2.57843e-005 -4.04509e-007 1
    length 6.72091
    axis 8.18909e-005 -0.122003 -0.403008 xyz
    dof rx ry rz
  end
  begin
    id 5
    name RightToes
    direction 0.00116825 -0.014069 0.9999
    length 3.85082
    axis 0.000514414 0.540638 -0.356797 xyz
    dof rx ry rz
  end
  begin
    id 6
    name SpineDummy
    direction 0.0168869 0.966876 -0.254689
    length 6.99894
    axis 0 0 0 xyz
  end
  begin
    id 7
    name Spine
    direction -0.0132008 0.999903 0.00446247
    length 11.1999
    axis -0.00148109 0.00725429 0.756411 xyz
    dof rx ry rz
  end
  begin
    id 8
    name Spine1
    direction 0 0 0
    length 0
    axis -0.000934958 0.0245693 1.46543 xyz
    dof rx ry rz
  end
  begin
    id 9
    name HEadDummy
    direction -0.0255732 0.999672 0.00128215
    length 3.43865
    axis -0.000934958 0.0245693 1.46543 xyz
  end
  begin
    id 10
    name HEad
    direction -0.0472656 0.980052 0.19304
    length 5.12695
    axis -0.000934954 0.0245693 1.46543 xyz
    dof rx ry rz
  end
  begin
    id 11
    name LeftShoulder1Dummy
    direction 0.953098 0.301717 -0.023914
    length 3.68488
    axis -0.000934958 0.0245693 1.46543 xyz
  end
  begin
    id 12
    name LeftShoulder1
    direction 0.962466 0.271167 0.0112566
    length 3.13809
    axis -0.000934958 0.0245693 1.46543 xyz
    dof rx ry rz
  end
  begin
    id 13
    name LeftArm
    direction 0.999943 0.00455037 -0.00961766
    length 11.3419
    axis -23.1648 0.685459 1.22814 xyz
    dof rx ry rz
  end
  begin
    id 14
    name LeftForeArm
    direction 0.999332 0.0131969 0.0340885
    length 8.70632
    axis -9.90633 0.618216 0.0826942 xyz
    dof rx ry rz
  end
  begin
    id 15
    name LeftHand
    direction 0.994373 -0.0366703 0.0993905
    length 5.32135
    axis 0.00675269 0.680415 0.445699 xyz
    dof rx ry rz
  end
  begin
    id 16
    name RightShoulderDummy
    direction -0.967298 0.252589 -0.0230903
    length 3.68488
    axis -0.000934958 0.0245693 1.46543 xyz
  end
  begin
    id 17
    name RightShoulder
    direction -0.975062 0.221602 0.0120823
    length 3.13809
    axis 0.216257 0.0246515 1.45863 xyz
    dof rx ry rz
  end
  begin
    id 18
    name RightArm
    direction -0.99886 -0.00851186 -0.0469687
    length 10.3947
    axis -23.196 0.23503 -0.532632 xyz
    dof rx ry rz
  end
  begin
    id 19
    name RightForeArm
    direction -0.99909 0.00114866 0.0426317
    length 8.68355
    axis -9.91764 -0.134943 0.610517 xyz
    dof rx ry rz
  end
  begin
    id 20
    name RightHand
    direction -0.992888 -0.0489538 0.10852
    length 5.28593
    axis -0.00275396 -0.197403 0.246414 xyz
    dof rx ry rz
  end
  begin
    id 21
    name LeftUpLegDummy
    direction 1 -2.30186e-007 -8.31532e-007
    length 4.04083
    axis 0 0 0 xyz
  end
  begin
    id 22
    name LeftUpLeg
    direction -0.000920097 -1 2.79241e-006
    length 17.4221
    axis -3.48782 0.00143434 -0.0532288 xyz
    dof rx ry rz
  end
  begin
    id 23
    name LeftLeg
    direction -0.000920097 -1 2.7912e-006
    length 17.1239
    axis 3.68162 -0.00806512 -0.0529896 xyz
    dof rx ry rz
  end
  begin
    id 24
    name LeftFoot
    direction -2.57845e-005 -3.987e-007 1
    length 6.72091
    axis 3.02372e-005 -0.00147829 -0.214229 xyz
    dof rx ry rz
  end
  begin
    id 25
    name LeftToes
    direction 0.00813577 -0.00488255 0.999955
    length 3.85048
    axis 3.89895e-005 -0.0014783 -0.214229 xyz
    dof rx ry rz
  end
:hierarchy
  begin
    root RightUpLegDummy SpineDummy LeftUpLegDummy
    RightUpLegDummy RightUpLeg
    RightUpLeg RightLeg
    RightLeg RightFoot
    RightFoot RightToes
    SpineDummy Spine
    Spine Spine1
    Spine1 HEadDummy LeftShoulder1Dummy RightShoulderDummy
    HEadDummy HEad
    LeftShoulder1Dummy LeftShoulder1
    LeftShoulder1 LeftArm
    LeftArm LeftForeArm
    LeftForeArm LeftHand
    RightShoulderDummy RightShoulder
    RightShoulder RightArm
    RightArm RightForeArm
    RightForeArm RightHand
    LeftUpLegDummy LeftUpLeg
    LeftUpLeg LeftLeg
    LeftLeg LeftFoot
    LeftFoot LeftToes
  end

:SAMPLES-PER-SECOND 30
:FULLY-SPECIFIED
:DEGREES
133
root  -29.258 34.48 3.78338 170.562 81.074 160.153
RightUpLeg  -20.2827 -7.98697 -9.82773
RightLeg  13.4026 8.7689 1.49749
RightFoot  9.58757 -0.0913572 1.57522
RightToes  -35.618 -0.184458 -0.289055
Spine  -1.43594 -0.311309 -1.26463
Spine1  -2.90573 -0.634961 -1.91309
HEad  -62.0613 4.69279 5.18196
LeftShoulder1  -1.94126e-019 -3.10601e-018 -2.51263e-017
LeftArm  0.768701 12.2581 -79.0537
LeftForeArm  32.3293 -26.2263 -4.2117
LeftHand  -0.386633 -1.55865 6.62738
RightShoulder  -4.96962e-017 0 -2.36833e-017
RightArm  -35.5606 -23.1846 77.5039
RightForeArm  59.5428 11.6453 1.49771
RightHand  -0.382467 -1.14548 -10.3858
LeftUpLeg  -10.2993 -0.187588 -3.4749
LeftLeg  10.6596 16.0936 1.94172
LeftFoot  1.74867 -0.00289335 0.627432
LeftToes  -15.3137 1.49739e-006 1.00523e-007
134
root  -28.7548 34.4621 4.18486 174.801 79.0268 164.829
RightUpLeg  -19.6322 -7.03368 -9.28082
RightLeg  15.599 5.69167 1.19921
RightFoot  7.75359 -0.0260862 0.886866
RightToes  -34.1459 -0.173487 -0.279723
Spine  -1.43621 -0.356072 -1.19604
Spine1  -2.91002 -0.743546 -1.77754
HEad  -62.1838 3.78833 5.21843
LeftShoulder1  -1.94126e-019 -3.10601e-018 -2.51263e-017
LeftArm  -1.08451 13.5822 -79.3648
LeftForeArm  33.8085 -23.2926 -3.80044
LeftHand  -0.399103 -1.31505 7.0648
RightShoulder  -4.96962e-017 0 -2.36833e-017
RightArm  -35.5671 -23.6475 77.2219
RightForeArm  59.5147 11.6516 1.49751
RightHand  -0.376711 -0.96254 -9.82375
LeftUpLeg  -9.21871 -1.18437 -2.31182
LeftLeg  10.264 15.0012 1.70935
LeftFoot  1.93318 -0.00409593 0.634312
LeftToes  -16.8458 1.49739e-006 1.00523e-007
135
root  -28.2514 34.4586 4.59425 178.63 76.6978 168.976
RightUpLeg  -18.697 -6.13803 -8.44082
RightLeg  17.0067 2.57674 0.609343
RightFoot  6.03475 0.00638714 0.396345
RightToes  -32.7205 -0.163097 -0.270422
Spine  -1.51563 -0.423389 -1.02094
Spine1  -3.07139 -0.890585 -1.43171
HEad  -62.2657 3.0287 4.97961
LeftShoulder1  -1.94126e-019 -3.10601e-018 -2.51263e-017
LeftArm  -3.22895 15.0984 -79.7729
LeftForeArm  35.5192 -20.2257 -3.39447
LeftHand  -0.418427 -1.06136 7.67015
RightShoulder  -4.96962e-017 0 -2.36833e-017
RightArm  -35.805 -24.0826 76.6702
RightForeArm  59.6126 11.5444 1.50439
RightHand  -0.374031 -1.02325 -9.88242
LeftUpLeg  -8.35891 -2.67502 -0.929174
LeftLeg  9.83306 14.1731 1.51026
LeftFoot  2.26907 -0.00823882 0.682523
LeftToes  -18.4454 1.49739e-006 1.00523e-007
136
root  -27.7855 34.4629 5.00078 -178.236 74.0961 172.294
RightUpLeg  -17.444 -5.71239 -7.3243
RightLeg  17.346 -0.365024 -0.0895659
RightFoot  4.64856 0.0173542 0.1038
RightToes  -30.9861 -0.15077 -0.258761
Spine  -1.59835 -0.509582 -0.807085
Spine1  -3.24071 -1.06894 -1.0148
HEad  -62.4879 2.43513 4.94751
LeftShoulder1  -1.94126e-019 -3.10601e-018 -2.51263e-017
LeftArm  -5.68082 16.6677 -80.047
LeftForeArm  36.9218 -17.3536 -2.98692
LeftHand  -0.450361 -1.11152 8.18633
RightShoulder  -4.96962e-017 0 -2.36833e-017
RightArm  -36.2331 -24.3012 75.9997
RightForeArm  59.6181 11.3782 1.51415
RightHand  -0.371107 -1.09906 -9.96955
LeftUpLeg  -7.95641 -4.50366 0.549003
LeftLeg  9.67617 13.4447 1.39723
LeftFoot  2.60288 -0.0123516 0.72445
LeftToes  -19.8978 1.49739e-006 1.00523e-007
137
root  -27.3675 34.4561 5.4138 -175.506 71.2813 175.095
RightUpLeg  -16.2604 -6.40718 -5.8806
RightLeg  17.2428 -2.5141 -0.606703
RightFoot  3.46272 0.0166568 -0.0115098
RightToes  -29.3001 -0.139131 -0.247072
Spine  -1.75184 -0.509095 -0.558903
Spine1  -3.55377 -1.0705 -0.536083
HEad  -62.4977 1.65761 5.29083
LeftShoulder1  -1.94126e-019 -3.10601e-018 -2.51263e-017
LeftArm  -7.35277 18.4539 -80.1414
LeftForeArm  37.0472 -15.183 -2.64348
LeftHand  -0.462885 -1.01276 8.53194
RightShoulder  -4.96962e-017 0 -2.36833e-017
RightArm  -36.1632 -24.8211 75.2159
RightForeArm  58.8464 11.517 1.50849
RightHand  -0.351087 -1.25877 -9.77224
LeftUpLeg  -8.15569 -6.27415 2.20028
LeftLeg  10.0175 12.5095 1.37628
LeftFoot  2.76813 -0.0131779 0.708036
LeftToes  -21.3425 1.49739e-006 1.00523e-007
138
root  -26.9843 34.4446 5.82405 -173.457 68.4394 177.328
RightUpLeg  -15.1353 -8.03977 -4.36107
RightLeg  17.1116 -3.59939 -0.859081
RightFoot  2.45284 0.0117443 -0.00895216
RightToes  -27.957 -0.130109 -0.237519
Spine  -1.74584 -0.464814 -0.26757
Spine1  -3.54889 -0.971533 0.0253097
HEad  -63.0223 1.1002 5.7671
LeftShoulder1  -1.94126e-019 -3.10601e-018 -2.51263e-017
LeftArm  -8.98317 19.7799 -80.1906
LeftForeArm  36.6316 -13.3867 -2.34409
LeftHand  -0.454758 -1.04997 8.33894
RightShoulder  -4.96962e-017 0 -2.36833e-017
RightArm  -36.3111 -24.7569 74.361
RightForeArm  58.4044 11.4814 1.51209
RightHand  -0.336336 -1.459 -9.80946
LeftUpLeg  -8.54916 -7.78714 3.91359
LeftLeg  10.5884 11.3276 1.36147
LeftFoot  2.83626 -0.0122206 0.655186
LeftToes  -22.9262 1.49739e-006 1.00523e-007
139
root  -26.6292 34.4285 6.24982 -171.64 65.6058 179.518
RightUpLeg  -13.8953 -10.2434 -2.63923
RightLeg  16.6543 -4.08531 -0.940169
RightFoot  1.73012 0.00737809 0.0244684
RightToes  -26.9876 -0.123737 -0.230494
Spine  -1.66898 -0.341866 0.13021
Spine1  -3.40261 -0.707451 0.799902
HEad  -63.4016 0.49394 6.15012
LeftShoulder1  -1.94126e-019 -3.10601e-018 -2.51263e-017
LeftArm  -10.4595 20.8319 -80.2513
LeftForeArm  37.2163 -11.811 -2.07115
LeftHand  -0.451178 -1.21444 8.08133
RightShoulder  -4.96962e-017 0 -2.36833e-017
RightArm  -36.3398 -24.424 73.297
RightForeArm  58.3581 11.3285 1.52041
RightHand  -0.331876 -1.61204 -10.0517
LeftUpLeg  -9.25629 -8.77482 5.86439
LeftLeg  11.7271 9.55249 1.34207
LeftFoot  2.64558 -0.0084366 0.526903
LeftToes  -24.7876 1.49739e-006 1.00523e-007
140
root  -26.2843 34.4001 6.64857 -170.243 62.7221 -178.495
RightUpLeg  -12.3195 -12.6292 -0.894261
RightLeg  15.6826 -4.48486 -0.951801
RightFoot  1.17259 0.00410824 0.0570881
RightToes  -25.7698 -0.115902 -0.221517
Spine  -1.54606 -0.202278 0.562667
Spine1  -3.16212 -0.403107 1.63068
HEad  -63.4364 -0.189042 6.67354
LeftShoulder1  -1.94126e-019 -3.10601e-018 -2.51263e-017
LeftArm  -11.0536 21.7829 -80.2941
LeftForeArm  37.1079 -10.994 -1.92837
LeftHand  -0.468342 -1.15993 8.4488
RightShoulder  -4.96962e-017 0 -2.36833e-017
RightArm  -36.0684 -23.9347 72.2117
RightForeArm  58.4058 11.1809 1.52705
RightHand  -0.327444 -1.75695 -10.2195
LeftUpLeg  -10.2892 -9.93417 7.88789
LeftLeg  13.6382 7.83176 1.36834
LeftFoot  2.09413 -0.00367192 0.362445
LeftToes  -26.6438 1.49739e-006 1.00523e-007
141
root  -25.9751 34.352 7.02644 -169.274 59.704 -176.841
RightUpLeg  -10.6991 -14.3955 0.786323
RightLeg  14.5552 -5.60117 -1.07294
RightFoot  0.677882 0.00244779 0.0860794
RightToes  -24.6266 -0.108723 -0.212941
Spine  -1.4316 -0.0994504 1.00181
Spine1  -2.93522 -0.164581 2.46454
HEad  -63.0006 -0.927803 7.42742
LeftShoulder1  -1.94126e-019 -3.10601e-018 -2.51263e-017
LeftArm  -11.6647 22.8917 -80.2454
LeftForeArm  37.1501 -11.1343 -1.95432
LeftHand  -0.474249 -1.30336 8.38157
RightShoulder  -4.96962e-017 0 -2.36833e-017
RightArm  -35.6437 -23.267 71.1116
RightForeArm  58.5672 11.0118 1.53288
RightHand  -0.326127 -1.8143 -10.2573
LeftUpLeg  -11.9538 -10.9467 9.89947
LeftLeg  16.5415 5.83241 1.32658
LeftFoot  1.21918 -0.000301721 0.189893
LeftToes  -28.1498 1.49739e-006 1.00523e-007
142
root  -25.6875 34.2846 7.37554 -168.856 56.7504 -175.522
RightUpLeg  -9.13238 -15.3414 2.31662
RightLeg  13.7731 -7.41407 -1.31361
RightFoot  0.0475077 -0.000269508 0.154043
RightToes  -23.2714 -0.100437 -0.202591
Spine  -1.24118 -0.0370611 1.41143
Spine1  -2.55511 -0.00449615 3.23588
HEad  -62.3201 -1.67843 8.2578
LeftShoulder1  -1.94126e-019 -3.10601e-018 -2.51263e-017
LeftArm  -12.4992 24.0166 -80.2191
LeftForeArm  36.6862 -11.9623 -2.10371
LeftHand  -0.461288 -1.35541 8.09771
RightShoulder  -4.96962e-017 0 -2.36833e-017
RightArm  -34.8033 -22.308 70.1131
RightForeArm  58.9366 10.9064 1.53537
RightHand  -0.315255 -2.00633 -10.6021
LeftUpLeg  -13.7631 -11.5917 11.7246
LeftLeg  19.8701 3.68804 1.06691
LeftFoot  0.35021 0.000252508 0.0789263
LeftToes  -28.9756 1.49739e-006 1.00523e-007
143
root  -25.4295 34.2144 7.6685 -169.001 54.1939 -174.69
RightUpLeg  -7.83203 -16.296 3.47877
RightLeg  13.5122 -8.85891 -1.52597
RightFoot  -0.647222 -0.00226808 0.269908
RightToes  -22.3259 -0.0948004 -0.195255
Spine  -1.02182 0.0181626 1.74031
Spine1  -2.11504 0.146687 3.8508
HEad  -61.5337 -2.28003 9.11451
LeftShoulder1  -1.94126e-019 -3.10601e-018 -2.51263e-017
LeftArm  -13.3766 25.1626 -80.3309
LeftForeArm  35.8013 -12.7721 -2.24577
LeftHand  -0.437318 -1.2714 7.77486
RightShoulder  -4.96962e-017 0 -2.36833e-017
RightArm  -34.3376 -20.9893 69.2252
RightForeArm  59.2701 10.8208 1.53689
RightHand  -0.314476 -2.0298 -10.6463
LeftUpLeg  -15.2688 -10.6858 12.7877
LeftLeg  22.9453 3.81226 1.32772
LeftFoot  0.100142 8.76465e-005 0.0613281
LeftToes  -30.1361 1.49739e-006 1.00523e-007
144
root  -25.2313 34.1784 7.93078 -169.196 52.5257 -174.309
RightUpLeg  -7.22509 -16.8307 4.32453
RightLeg  13.5901 -9.9092 -1.71871
RightFoot  -1.20846 -0.00265044 0.390088
RightToes  -21.4748 -0.0898318 -0.188573
Spine  -0.882737 0.20513 1.95123
Spine1  -1.82708 0.569184 4.24326
HEad  -60.9531 -2.73932 9.77914
LeftShoulder1  -1.94126e-019 -3.10601e-018 -2.51263e-017
LeftArm  -14.9417 26.1633 -80.7438
LeftForeArm  35.2996 -12.7405 -2.23742
LeftHand  -0.430424 -1.34577 7.57589
RightShoulder  -4.96962e-017 0 -2.36833e-017
RightArm  -33.7789 -19.4625 68.5488
RightForeArm  59.8446 10.8012 1.53657
RightHand  -0.3142 -2.14208 -10.9921
LeftUpLeg  -16.5077 -7.29179 12.8652
LeftLeg  25.0718 7.30597 2.84792
LeftFoot  0.953938 -0.00026642 0.193547
LeftToes  -29.8424 1.49739e-006 1.00523e-007
145
root  -25.0804 34.1965 8.13035 -169.662 51.8632 -174.613
RightUpLeg  -7.06184 -16.9355 4.59016
RightLeg  13.8093 -10.4777 -1.85718
RightFoot  -1.59441 -0.00208485 0.485795
RightToes  -20.5484 -0.0845369 -0.181217
Spine  -0.816817 0.491153 1.95275
Spine1  -1.67905 1.19331 4.24091
HEad  -60.5974 -2.86036 10.3517
LeftShoulder1  -1.94126e-019 -3.10601e-018 -2.51263e-017
LeftArm  -16.4152 27.267 -81.2356
LeftForeArm  34.3511 -12.1202 -2.11982
LeftHand  -0.423713 -1.31063 7.49634
RightShoulder  -4.96962e-017 0 -2.36833e-017
RightArm  -32.7941 -17.9191 68.2481
RightForeArm  60.0756 11.0789 1.52801
RightHand  -0.325152 -2.05371 -11.0953
LeftUpLeg  -17.1096 -2.4408 11.8932
LeftLeg  26.0404 11.5048 4.68618
LeftFoot  2.18748 -0.00764052 0.561755
LeftToes  -27.3659 1.49739e-006 1.00523e-007
146
root  -25.0034 34.2525 8.27808 -170.428 51.7766 -175.731
RightUpLeg  -7.42838 -16.6143 4.27122
RightLeg  14.2197 -10.9295 -2.01656
RightFoot  -1.85785 -0.00110326 0.567898
RightToes  -19.8011 -0.0803525 -0.175221
Spine  -0.860145 0.765201 1.70616
Spine1  -1.74725 1.79938 3.77299
HEad  -60.4527 -2.84548 10.7649
LeftShoulder1  -1.94126e-019 -3.10601e-018 -2.51263e-017
LeftArm  -18.1051 28.5352 -81.6959
LeftForeArm  33.436 -11.1136 -1.92487
LeftHand  -0.406488 -1.24911 7.25905
RightShoulder  -4.96962e-017 0 -2.36833e-017
RightArm  -31.0128 -16.4552 68.502
RightForeArm  59.0257 11.7143 1.49564
RightHand  -0.31977 -2.12055 -11.1219
LeftUpLeg  -17.5086 1.00651 10.426
LeftLeg  26.2155 13.1679 5.39561
LeftFoot  1.31504 -0.00314836 0.435902
LeftToes  -16.3444 1.49739e-006 1.00523e-007
147
root  -24.9556 34.3026 8.37705 -171.131 51.6874 -176.612
RightUpLeg  -7.44578 -16.429 3.95025
RightLeg  14.2092 -11.2689 -2.07613
RightFoot  -1.98189 -0.000303821 0.620787
RightToes  -18.9929 -0.0785389 -0.168676
Spine  -0.855717 0.878749 1.49189
Spine1  -1.71658 2.07208 3.38329
HEad  -60.6819 -2.67808 10.9336
LeftShoulder1  -1.94126e-019 -3.10601e-018 -2.51263e-017
LeftArm  -19.0845 29.9642 -82.2186
LeftForeArm  32.504 -11.2457 -1.93467
LeftHand  -0.400482 -1.28973 7.11356
RightShoulder  -4.96962e-017 0 -2.36833e-017
RightArm  -28.9297 -15.0442 69.131
RightForeArm  57.1796 12.7602 1.40598
RightHand  -0.314018 -2.14667 -11.0005
LeftUpLeg  -17.5977 1.66066 9.46098
LeftLeg  26.0929 15.2012 6.16791
LeftFoot  1.36479 -0.0043512 0.5269
LeftToes  -10.4004 1.49739e-006 1.00523e-007
